<svg width="150" height="150" viewBox="0 0 150 150" fill="none" xmlns="http://www.w3.org/2000/svg">
<path d="M74.726 27.4146C86.5753 27.4146 97.376 29.9585 107.128 35.0464C116.88 40.1342 125.426 47.7094 132.767 57.7719L127.733 61.5469C121.127 52.3191 113.395 45.3731 104.536 40.7089C95.6773 36.0447 85.7406 33.7104 74.726 33.7062C63.8205 33.7062 53.9635 36.0656 45.1552 40.7844C36.3469 45.5031 28.6396 52.5288 22.0333 61.8615L17 58.2437C24.4451 48.0722 33.0186 40.3922 42.7203 35.2037C52.4221 30.0151 63.0906 27.4188 74.726 27.4146ZM74.726 42.2C89.092 42.2 101.308 46.9712 111.375 56.5135C121.442 66.0559 126.475 77.6955 126.475 91.4323C126.475 96.5705 124.613 100.922 120.888 104.488C117.163 108.053 112.629 109.835 107.285 109.835C101.833 109.835 97.2187 108.053 93.4437 104.488C89.6687 100.922 87.7812 96.5705 87.7812 91.4323C87.7812 88.0767 86.5229 85.1931 84.0062 82.7812C81.4896 80.3694 78.3962 79.1635 74.726 79.1635C71.0559 79.1635 67.9625 80.3694 65.4458 82.7812C62.9292 85.1931 61.6708 88.0767 61.6708 91.4323C61.6708 101.394 64.6594 109.808 70.6365 116.674C76.6135 123.541 85.4219 128.706 97.0615 132.171L95.4885 138.305C82.6955 135.055 72.8134 129.365 65.8422 121.236C58.871 113.107 55.3834 103.173 55.3792 91.4323C55.3792 86.2941 57.2667 81.9172 61.0417 78.3016C64.8167 74.686 69.3781 72.8761 74.726 72.8719C80.074 72.8677 84.6354 74.6776 88.4104 78.3016C92.1854 81.9256 94.0729 86.3025 94.0729 91.4323C94.0729 94.7878 95.3585 97.6715 97.9297 100.083C100.501 102.495 103.619 103.701 107.285 103.701C110.851 103.701 113.892 102.495 116.408 100.083C118.925 97.6715 120.183 94.7878 120.183 91.4323C120.183 79.4781 115.779 69.3066 106.971 60.9177C98.1625 52.5288 87.4667 48.3344 74.8833 48.3344C62.3 48.3344 51.6042 52.5288 42.7958 60.9177C33.9875 69.3066 29.5833 79.4257 29.5833 91.275C29.5833 94.9451 29.9776 98.8774 30.7662 103.072C31.5547 107.266 32.8382 111.88 34.6167 116.914L28.9542 119.116C27.0667 114.292 25.651 109.573 24.7073 104.959C23.7635 100.345 23.2917 95.8365 23.2917 91.4323C23.2917 77.6955 28.2726 66.0559 38.2344 56.5135C48.1962 46.9712 60.3601 42.2 74.726 42.2ZM74.726 12C81.542 12 88.2007 12.8389 94.7021 14.5167C101.203 16.1944 108.177 18.9208 115.622 22.6958L113.105 28.5156C105.87 24.8455 99.2384 22.224 93.211 20.651C87.1835 19.0781 81.0219 18.2917 74.726 18.2917C67.8052 18.2917 61.4087 19.1306 55.5365 20.8083C49.6642 22.4861 43.5299 25.1601 37.1333 28.8302L34.3021 23.325C41.2229 19.4451 47.934 16.5887 54.4354 14.7557C60.9368 12.9228 67.7003 12.0042 74.726 12ZM74.726 57.4573C85.2121 57.4573 93.7856 60.9177 100.446 67.8385C107.107 74.7594 110.435 83.6726 110.431 94.5781H104.14C104.14 85.3503 101.413 77.9052 95.9604 72.2427C90.5076 66.5802 83.4295 63.749 74.726 63.749C66.6517 63.749 59.7833 66.4502 54.1208 71.8526C48.4583 77.2551 45.6271 83.7816 45.6271 91.4323C45.6271 99.5066 47.0427 106.56 49.874 112.591C52.7052 118.623 57.791 125.464 65.1312 133.115L60.7271 137.519C52.8625 129.34 47.3321 121.815 44.136 114.944C40.9398 108.074 39.3396 100.236 39.3354 91.4323C39.3354 81.9948 42.7707 73.9729 49.6412 67.3667C56.5117 60.7604 64.8733 57.4573 74.726 57.4573ZM81.8042 115.183C78.4486 112.037 75.8795 108.183 74.0969 103.619C72.3142 99.0557 71.4229 93.9448 71.4229 88.2865H77.7146C77.7146 93.0052 78.4486 97.3045 79.9167 101.184C81.3847 105.064 83.4819 108.263 86.2083 110.779C88.9347 113.191 92.003 115.051 95.413 116.36C98.8231 117.669 102.361 118.325 106.027 118.329C107.81 118.329 109.54 118.145 111.218 117.775C112.895 117.406 114.521 116.909 116.094 116.284L117.195 122.419C115.412 123.258 113.577 123.834 111.69 124.149C109.802 124.464 107.915 124.621 106.027 124.621C101.413 124.621 97.0363 123.809 92.8964 122.186C88.7565 120.563 85.0591 118.228 81.8042 115.183Z" fill="#2FF86D"/>
</svg>
