<svg width="208" height="61" viewBox="0 0 208 61" fill="none" xmlns="http://www.w3.org/2000/svg">
<path d="M200.318 60.5H8.27451C4.05147 60.5 0.592773 57.1231 0.592773 53V8C0.592773 3.87688 4.05147 0.500003 8.27451 0.500003H200.318C204.541 0.500003 208 3.87688 208 8V53C208 57.1231 204.541 60.5 200.318 60.5Z" fill="black"/>
<path d="M200.318 1.70187C203.875 1.70187 206.769 4.5275 206.769 8V53C206.769 56.4725 203.875 59.2981 200.318 59.2981H8.27451C4.71786 59.2981 1.82377 56.4725 1.82377 53V8C1.82377 4.5275 4.71786 1.70187 8.27451 1.70187H200.318ZM200.318 0.500003H8.27451C4.05147 0.500003 0.592773 3.87688 0.592773 8V53C0.592773 57.1231 4.05147 60.5 8.27451 60.5H200.318C204.541 60.5 208 57.1231 208 53V8C208 3.87688 204.541 0.500003 200.318 0.500003Z" fill="#A6A6A6"/>
<path d="M73.442 15.8656C73.442 17.1181 73.0579 18.1212 72.3012 18.8694C71.4313 19.7562 70.2982 20.2025 68.9097 20.2025C67.5827 20.2025 66.4497 19.7487 65.5202 18.8544C64.5888 17.9469 64.124 16.8331 64.124 15.5C64.124 14.1669 64.5888 13.0531 65.5202 12.1531C66.4497 11.2512 67.5827 10.7975 68.9097 10.7975C69.5704 10.7975 70.2003 10.9306 70.8014 11.1781C71.4005 11.4275 71.8883 11.765 72.2417 12.1812L71.439 12.9725C70.8225 12.2619 69.9833 11.9112 68.9097 11.9112C67.9418 11.9112 67.1026 12.2412 66.3901 12.9069C65.6853 13.5744 65.332 14.4387 65.332 15.5C65.332 16.5612 65.6853 17.4331 66.3901 18.1006C67.1026 18.7587 67.9418 19.0962 68.9097 19.0962C69.9372 19.0962 70.8014 18.7587 71.4831 18.0931C71.9325 17.6525 72.1879 17.045 72.2551 16.2687H68.9097V15.185H73.3728C73.4266 15.4194 73.442 15.6462 73.442 15.8656Z" fill="white"/>
<path d="M80.5227 12.1081H76.3304V14.9581H80.1098V16.0418H76.3304V18.8918H80.5227V19.9962H75.1436V11.0037H80.5227V12.1081Z" fill="white"/>
<path d="M85.52 19.9962H84.3332V12.1081H81.7617V11.0037H88.0934V12.1081H85.52V19.9962Z" fill="white"/>
<path d="M92.6758 19.9962V11.0037H93.8607V19.9962H92.6758Z" fill="white"/>
<path d="M99.1128 19.9962H97.9355V12.1081H95.3545V11.0037H101.694V12.1081H99.1128V19.9962Z" fill="white"/>
<path d="M113.681 18.8394C112.773 19.7487 111.647 20.2025 110.305 20.2025C108.955 20.2025 107.83 19.7487 106.921 18.8394C106.015 17.9319 105.563 16.8181 105.563 15.5C105.563 14.1819 106.015 13.0681 106.921 12.1606C107.83 11.2512 108.955 10.7975 110.305 10.7975C111.64 10.7975 112.765 11.2512 113.673 12.1681C114.588 13.0831 115.039 14.1894 115.039 15.5C115.039 16.8181 114.588 17.9319 113.681 18.8394ZM107.799 18.0856C108.483 18.7587 109.314 19.0962 110.305 19.0962C111.288 19.0962 112.128 18.7587 112.804 18.0856C113.485 17.4125 113.831 16.5481 113.831 15.5C113.831 14.4519 113.485 13.5875 112.804 12.9144C112.128 12.2412 111.288 11.9037 110.305 11.9037C109.314 11.9037 108.483 12.2412 107.799 12.9144C107.117 13.5875 106.771 14.4519 106.771 15.5C106.771 16.5481 107.117 17.4125 107.799 18.0856Z" fill="white"/>
<path d="M116.704 19.9962V11.0037H118.144L122.623 17.9975H122.675L122.623 16.2687V11.0037H123.808V19.9962H122.571L117.881 12.6575H117.829L117.881 14.3937V19.9962H116.704Z" fill="white"/>
<path d="M105.272 33.1288C101.663 33.1288 98.7155 35.81 98.7155 39.5094C98.7155 43.1788 101.663 45.8881 105.272 45.8881C108.888 45.8881 111.836 43.1788 111.836 39.5094C111.836 35.81 108.888 33.1288 105.272 33.1288ZM105.272 43.3756C103.292 43.3756 101.588 41.78 101.588 39.5094C101.588 37.2088 103.292 35.6413 105.272 35.6413C107.252 35.6413 108.963 37.2088 108.963 39.5094C108.963 41.78 107.252 43.3756 105.272 43.3756ZM90.9665 33.1288C87.3503 33.1288 84.4102 35.81 84.4102 39.5094C84.4102 43.1788 87.3503 45.8881 90.9665 45.8881C94.5808 45.8881 97.5229 43.1788 97.5229 39.5094C97.5229 35.81 94.5808 33.1288 90.9665 33.1288ZM90.9665 43.3756C88.9846 43.3756 87.2755 41.78 87.2755 39.5094C87.2755 37.2088 88.9846 35.6413 90.9665 35.6413C92.9465 35.6413 94.6499 37.2088 94.6499 39.5094C94.6499 41.78 92.9465 43.3756 90.9665 43.3756ZM73.9438 35.0844V37.7957H80.5751C80.3811 39.3107 79.8626 40.4244 79.0675 41.2007C78.0996 42.1382 76.5921 43.1788 73.9438 43.1788C69.8629 43.1788 66.6673 39.9632 66.6673 35.9788C66.6673 31.9944 69.8629 28.7788 73.9438 28.7788C76.1504 28.7788 77.7559 29.6207 78.9408 30.7119L80.8977 28.8013C79.2404 27.2563 77.0357 26.0694 73.9438 26.0694C68.3477 26.0694 63.6445 30.515 63.6445 35.9788C63.6445 41.4425 68.3477 45.8881 73.9438 45.8881C76.9685 45.8881 79.2404 44.9206 81.0264 43.1056C82.8565 41.3188 83.4269 38.8063 83.4269 36.7775C83.4269 36.1475 83.3731 35.5682 83.2771 35.0844H73.9438ZM143.552 37.1863C143.012 35.7594 141.347 33.1288 137.956 33.1288C134.595 33.1288 131.797 35.7144 131.797 39.5094C131.797 43.0831 134.566 45.8881 138.278 45.8881C141.28 45.8881 143.012 44.1013 143.725 43.0606L141.497 41.6113C140.754 42.6725 139.742 43.3756 138.278 43.3756C136.825 43.3756 135.782 42.725 135.113 41.4425L143.853 37.9119L143.552 37.1863ZM134.641 39.3106C134.566 36.8506 136.598 35.5907 138.054 35.5907C139.194 35.5907 140.162 36.1475 140.485 36.9444L134.641 39.3106ZM127.537 45.5H130.41V26.75H127.537V45.5ZM122.832 34.55H122.736C122.091 33.8038 120.86 33.1288 119.301 33.1288C116.028 33.1288 113.036 35.9338 113.036 39.53C113.036 43.1056 116.028 45.8881 119.301 45.8881C120.86 45.8881 122.091 45.2075 122.736 44.4388H122.832V45.3538C122.832 47.7931 121.498 49.1038 119.345 49.1038C117.589 49.1038 116.501 47.8663 116.051 46.8256L113.553 47.8438C114.273 49.535 116.18 51.6163 119.345 51.6163C122.713 51.6163 125.555 49.6813 125.555 44.9731V33.5169H122.832V34.55ZM119.546 43.3756C117.566 43.3756 115.909 41.7575 115.909 39.53C115.909 37.2819 117.566 35.6413 119.546 35.6413C121.498 35.6413 123.036 37.2819 123.036 39.53C123.036 41.7575 121.498 43.3756 119.546 43.3756ZM157.003 26.75H150.131V45.5H152.997V38.3957H157.003C160.185 38.3957 163.305 36.1475 163.305 32.5719C163.305 28.9982 160.177 26.75 157.003 26.75ZM157.077 35.7875H152.997V29.3582H157.077C159.217 29.3582 160.438 31.0925 160.438 32.5719C160.438 34.0232 159.217 35.7875 157.077 35.7875ZM174.79 33.0931C172.719 33.0931 170.567 33.9856 169.681 35.9638L172.224 37.0044C172.771 35.9638 173.778 35.6263 174.841 35.6263C176.328 35.6263 177.835 36.4982 177.858 38.0375V38.2344C177.34 37.9419 176.23 37.5088 174.864 37.5088C172.126 37.5088 169.336 38.9807 169.336 41.7275C169.336 44.24 171.579 45.8581 174.1 45.8581C176.028 45.8581 177.092 45.0088 177.76 44.0206H177.858V45.47H180.626V38.2775C180.626 34.9532 178.083 33.0931 174.79 33.0931ZM174.444 43.3682C173.507 43.3682 172.201 42.9144 172.201 41.78C172.201 40.3288 173.829 39.7719 175.239 39.7719C176.501 39.7719 177.092 40.0438 177.858 40.4019C177.634 42.1381 176.103 43.3682 174.444 43.3682ZM190.708 33.5038L187.415 41.6319H187.317L183.912 33.5038H180.822L185.938 44.8625L183.019 51.1831H186.013L193.896 33.5038H190.708ZM164.88 45.5H167.753V26.75H164.88V45.5Z" fill="white"/>
<path d="M16.6246 11.8082C16.1733 12.2694 15.9121 12.9875 15.9121 13.9175V47.09C15.9121 48.02 16.1733 48.7382 16.6246 49.1994L16.736 49.3007L35.7751 30.7194V30.2807L16.736 11.6994L16.6246 11.8082Z" fill="url(#paint0_linear_319_178)"/>
<path d="M42.1147 36.9163L35.7754 30.7194V30.2806L42.1224 24.0838L42.2645 24.1644L49.7811 28.34C51.9262 29.525 51.9262 31.475 49.7811 32.6675L42.2645 36.8356L42.1147 36.9163Z" fill="url(#paint1_linear_319_178)"/>
<path d="M42.2647 36.8357L35.7756 30.5001L16.625 49.1995C17.3375 49.9307 18.4993 50.0188 19.8206 49.2876L42.2647 36.8357Z" fill="url(#paint2_linear_319_178)"/>
<path d="M42.2647 24.1644L19.8206 11.7125C18.4993 10.9888 17.3375 11.0769 16.625 11.8081L35.7756 30.5L42.2647 24.1644Z" fill="url(#paint3_linear_319_178)"/>
<defs>
<linearGradient id="paint0_linear_319_178" x1="34.0847" y1="47.4355" x2="8.91831" y2="21.6593" gradientUnits="userSpaceOnUse">
<stop stop-color="#00A0FF"/>
<stop offset="0.0066" stop-color="#00A1FF"/>
<stop offset="0.2601" stop-color="#00BEFF"/>
<stop offset="0.5122" stop-color="#00D2FF"/>
<stop offset="0.7604" stop-color="#00DFFF"/>
<stop offset="1" stop-color="#00E3FF"/>
</linearGradient>
<linearGradient id="paint1_linear_319_178" x1="52.5744" y1="30.4979" x2="15.3996" y2="30.4979" gradientUnits="userSpaceOnUse">
<stop stop-color="#FFE000"/>
<stop offset="0.4087" stop-color="#FFBD00"/>
<stop offset="0.7754" stop-color="#FFA500"/>
<stop offset="1" stop-color="#FF9C00"/>
</linearGradient>
<linearGradient id="paint2_linear_319_178" x1="38.7361" y1="27.0559" x2="4.60844" y2="-7.89868" gradientUnits="userSpaceOnUse">
<stop stop-color="#FF3A44"/>
<stop offset="1" stop-color="#C31162"/>
</linearGradient>
<linearGradient id="paint3_linear_319_178" x1="11.8044" y1="60.2357" x2="27.0439" y2="44.627" gradientUnits="userSpaceOnUse">
<stop stop-color="#32A071"/>
<stop offset="0.0685" stop-color="#2DA771"/>
<stop offset="0.4762" stop-color="#15CF74"/>
<stop offset="0.8009" stop-color="#06E775"/>
<stop offset="1" stop-color="#00F076"/>
</linearGradient>
</defs>
</svg>
