<svg width="160" height="59" viewBox="0 0 160 59" fill="none" xmlns="http://www.w3.org/2000/svg">
<path d="M6.92045 46.5L3.57955 20.3182H8.84659L10.7727 39.5455H11.0284L19.3807 20.3182H24.6477L26.5568 39.4602H26.8125L35.1136 20.3182H40.3807L28.3295 46.5H23.1307L20.9489 27.5966H20.5568L12.1023 46.5H6.92045ZM51.2727 47.0284C48.7045 47.0284 46.5795 46.4773 44.8977 45.375C43.2273 44.2614 42.0568 42.6989 41.3864 40.6875C40.7159 38.6648 40.608 36.2955 41.0625 33.5795C41.5057 30.8977 42.3977 28.5341 43.7386 26.4886C45.0795 24.4432 46.75 22.8466 48.75 21.6989C50.7614 20.5511 52.983 19.9773 55.4148 19.9773C56.892 19.9773 58.2841 20.2216 59.5909 20.7102C60.9091 21.1989 62.0284 21.9659 62.9489 23.0114C63.8693 24.0568 64.5057 25.4148 64.858 27.0852C65.2216 28.7443 65.2102 30.7614 64.8239 33.1364L64.5341 34.9432H43.7045L44.3011 31.125H60.1193C60.358 29.7841 60.2955 28.5966 59.9318 27.5625C59.5682 26.517 58.9432 25.6932 58.0568 25.0909C57.1818 24.4886 56.0795 24.1875 54.75 24.1875C53.3864 24.1875 52.1136 24.5455 50.9318 25.2614C49.75 25.9773 48.7614 26.892 47.9659 28.0057C47.1818 29.108 46.6875 30.2443 46.483 31.4148L45.8864 34.9091C45.5909 36.8182 45.642 38.3523 46.0398 39.5114C46.4489 40.6705 47.1648 41.5114 48.1875 42.0341C49.2102 42.5568 50.4886 42.8182 52.0227 42.8182C53.0114 42.8182 53.9261 42.6818 54.767 42.4091C55.6193 42.125 56.375 41.7102 57.0341 41.1648C57.6932 40.608 58.2443 39.9148 58.6875 39.0852L63.358 39.9545C62.733 41.375 61.8352 42.6193 60.6648 43.6875C59.4943 44.7443 58.1136 45.5682 56.5227 46.1591C54.9432 46.7386 53.1932 47.0284 51.2727 47.0284ZM113.983 47.0795C112.324 47.0795 110.875 46.7727 109.636 46.1591C108.398 45.5341 107.483 44.6307 106.892 43.4489C106.301 42.267 106.148 40.8182 106.432 39.1023C106.682 37.625 107.17 36.4091 107.898 35.4545C108.636 34.5 109.534 33.7443 110.591 33.1875C111.648 32.6193 112.795 32.1932 114.034 31.9091C115.273 31.625 116.523 31.4148 117.784 31.2784C119.375 31.0966 120.665 30.9432 121.653 30.8182C122.653 30.6932 123.403 30.5 123.903 30.2386C124.403 29.9659 124.705 29.5227 124.807 28.9091V28.7898C125.045 27.3125 124.83 26.1648 124.159 25.3466C123.5 24.517 122.352 24.1023 120.716 24.1023C119.011 24.1023 117.58 24.4773 116.42 25.2273C115.273 25.9773 114.426 26.8182 113.881 27.75L109.312 26.6591C110.131 25.0682 111.17 23.7841 112.432 22.8068C113.705 21.8182 115.097 21.1023 116.608 20.6591C118.119 20.2045 119.665 19.9773 121.244 19.9773C122.29 19.9773 123.375 20.1023 124.5 20.3523C125.625 20.5909 126.648 21.0341 127.568 21.6818C128.5 22.3295 129.193 23.2557 129.648 24.4602C130.102 25.6534 130.17 27.2045 129.852 29.1136L126.972 46.5H121.994L122.608 42.9205H122.403C121.972 43.5795 121.369 44.2273 120.597 44.8636C119.835 45.5 118.903 46.0284 117.801 46.4489C116.699 46.8693 115.426 47.0795 113.983 47.0795ZM115.722 42.9886C117.142 42.9886 118.398 42.7102 119.489 42.1534C120.591 41.5966 121.483 40.8693 122.165 39.9716C122.847 39.0625 123.273 38.0909 123.443 37.0568L124.006 33.6818C123.79 33.8636 123.409 34.0284 122.864 34.1761C122.33 34.3239 121.727 34.4545 121.057 34.5682C120.386 34.6818 119.727 34.7784 119.08 34.858C118.443 34.9375 117.915 35.0114 117.494 35.0795C116.494 35.2045 115.557 35.4148 114.682 35.7102C113.818 36.0057 113.097 36.4318 112.517 36.9886C111.938 37.5341 111.574 38.2614 111.426 39.1705C111.222 40.4318 111.523 41.3864 112.33 42.0341C113.148 42.6705 114.278 42.9886 115.722 42.9886ZM134.442 56.3182C133.669 56.3182 132.982 56.2557 132.379 56.1307C131.777 56.017 131.328 55.892 131.033 55.7557L132.976 51.5795C133.874 51.8295 134.675 51.9261 135.379 51.8693C136.095 51.8125 136.766 51.517 137.391 50.983C138.016 50.4489 138.652 49.608 139.3 48.4602L140.254 46.7386L135.124 20.3182H140.374L143.612 40.6875H143.885L153.908 20.3182H159.584L143.885 49.9602C143.146 51.3693 142.305 52.5398 141.362 53.4716C140.43 54.4148 139.385 55.125 138.226 55.6023C137.078 56.0795 135.817 56.3182 134.442 56.3182Z" fill="#003429"/>
<path d="M69 46.9203V46.9203C73.1332 46.9203 76.6827 43.9568 77.7366 39.9602C79.4318 33.5315 81.8395 26.2325 83.2858 24.0631C85.7927 20.3029 95.4287 19.7773 91.8573 31.206" stroke="#2FF86D" stroke-width="3" stroke-linecap="round"/>
<path d="M73.2861 34.8782C75.429 28.4496 77.5781 15.5201 89.0005 16.206C102.572 17.021 98.2862 36.1041 92.5719 36.9204C87.5719 37.6347 84.0004 32.7353 87.5719 26.3067" stroke="#2FF86D" stroke-width="3" stroke-linecap="round"/>
<path d="M82.5713 35.4918C83.7618 39.0633 88.4285 44.9204 97.5714 39.7776" stroke="#2FF86D" stroke-width="3" stroke-linecap="round"/>
<path d="M76.8574 16.3067C80.4289 12.021 91.1432 8.44951 99.0004 15.4917" stroke="#2FF86D" stroke-width="3" stroke-linecap="round"/>
</svg>
